<svg width="24" height="24" viewBox="0 0 24 24" fill="none" xmlns="http://www.w3.org/2000/svg">
<path d="M5.98279 10.9502C8.29342 10.9502 11.5837 7.9502 11.5837 7.9502C11.5837 7.9502 8.48027 -0.0182607 6.28555 2.70018C4.16627 5.32518 4.54469 10.9502 5.98279 10.9502Z" fill="#6BB82E"/>
<path d="M16.8086 1.2002C13.6261 1.20018 11.5837 7.9502 11.5837 7.9502C11.5837 7.9502 14.7098 11.9071 17.8683 9.0002C19.0092 7.95019 20.617 1.20021 16.8086 1.2002Z" fill="#6BB82E"/>
<path d="M7.99615 22.8002C11.932 20.1752 11.5837 7.9502 11.5837 7.9502M11.5837 7.9502C11.5837 7.9502 8.29342 10.9502 5.98279 10.9502C4.54469 10.9502 4.16627 5.32518 6.28555 2.70018C8.48027 -0.0182608 11.5837 7.9502 11.5837 7.9502ZM11.5837 7.9502C11.5837 7.9502 13.6261 1.20018 16.8086 1.2002C20.617 1.20021 19.0092 7.95019 17.8683 9.0002C14.7098 11.9071 11.5837 7.9502 11.5837 7.9502Z" stroke="#6BB82E" stroke-width="0.6" opacity="0.8" stroke-linecap="round"/>
</svg>
